<svg xmlns="http://www.w3.org/2000/svg" viewBox="0 0 24 24" id="gmail"><path d="M21.5 21h-19A2.502 2.502 0 0 1 0 18.5v-13C0 4.122 1.121 3 2.5 3h19C22.879 3 24 4.122 24 5.5v13c0 1.379-1.121 2.5-2.5 2.5zM2.5 4C1.673 4 1 4.673 1 5.5v13c0 .827.673 1.5 1.5 1.5h19c.827 0 1.5-.673 1.5-1.5v-13c0-.827-.673-1.5-1.5-1.5h-19z"></path><path d="M12 11a.503.503 0 0 1-.297-.098l-9.5-7a.5.5 0 1 1 .594-.805L12 9.879l9.203-6.781a.5.5 0 0 1 .594.805l-9.5 7A.509.509 0 0 1 12 11z"></path><path d="M20.5 21a.5.5 0 0 1-.5-.5V8.965l-7.712 5.444a.499.499 0 0 1-.576 0L4 8.965V20.5a.5.5 0 1 1-1 0V8a.5.5 0 0 1 .789-.409L12 13.388l8.212-5.797A.5.5 0 1 1 21 8v12.5a.5.5 0 0 1-.5.5z"></path><path d="M20.5 20.5c-.1 0-.201-.03-.288-.091L12 14.612l-8.212 5.797a.5.5 0 0 1-.576-.817l8.5-6a.499.499 0 0 1 .576 0l8.5 6a.5.5 0 0 1-.288.908z"></path></svg>